{"title":"16+ Anchhuyee 2002 Hot Movie x264 VCDRip (RRG) - Hindi","uid":8222139,"size":644094557,"categoryP":"video","categoryS":"movies","magnet":"?xt=urn:btih:685b06ce038314d7f7742d357c8a91a7590f2350&amp;dn=16%2B+Anchhuyee+2002+Hot+Movie+x264+VCDRip+%28RRG%29+-+Hindi&amp;tr=udp%3A%2F%2Ftracker.openbittorrent.com%3A80&amp;tr=udp%3A%2F%2Fopen.demonii.com%3A1337&amp;tr=udp%3A%2F%2Ftracker.coppersurfer.tk%3A6969&amp;tr=udp%3A%2F%2Fexodus.desync.com%3A6969","seeders":1,"leechers":2,"uploader":"SJonam","files":1,"time":1362501130,"description":" &lt;a href=&quot;http://desibbrg.org/images/66952052392581364616.gif&quot; rel=&quot;nofollow&quot; target=&quot;_NEW&quot;&gt;http://desibbrg.org/images/66952052392581364616.gif&lt;/a&gt; &lt;a href=&quot;\nhttp://desibbrg.org/images/76512797196754567082.png&quot; rel=&quot;nofollow&quot; target=&quot;_NEW&quot;&gt;\nhttp://desibbrg.org/images/76512797196754567082.png&lt;/a&gt; &lt;a href=&quot;\nhttp://desibbrg.org/images/02762068666825205999.png&quot; rel=&quot;nofollow&quot; target=&quot;_NEW&quot;&gt;\nhttp://desibbrg.org/images/02762068666825205999.png&lt;/a&gt; &lt;a href=&quot;\nhttp://desibbrg.org/images/73439186660924403015.png&quot; rel=&quot;nofollow&quot; target=&quot;_NEW&quot;&gt;\nhttp://desibbrg.org/images/73439186660924403015.png&lt;/a&gt; &lt;a href=&quot;\nhttp://desibbrg.org/images/28294375935659408288.png&quot; rel=&quot;nofollow&quot; target=&quot;_NEW&quot;&gt;\nhttp://desibbrg.org/images/28294375935659408288.png&lt;/a&gt;\n\nMedia Info - \nGeneral\nComplete name                  : Anchhuyee- Hot Masala Movie x264 [TMB].mp4\nFormat                         : MPEG-4\nFormat profile                 : Base Media / Version 2\nCodec ID                       : mp42\nFile size                      : 614 MiB\nDuration                       : 1h 54mn\nOverall bit rate mode          : Variable\nOverall bit rate               : 749 Kbps\n\nVideo\nID                             : 1\nFormat                         : AVC\nFormat/Info                    : Advanced Video Codec\nFormat profile                 : &lt;a class=&quot;__cf_email__&quot; href=&quot;/cdn-cgi/l/email-protection&quot; data-cfemail=&quot;672a060e09272b544957&quot;&gt;[email&amp;#160;protected]&lt;/a&gt;&lt;script cf-hash='f9e31' type=&quot;text/javascript&quot;&gt;\n/* &lt;![CDATA[ */!function(){try{var t=&quot;currentScript&quot;in document?document.currentScript:function(){for(var t=document.getElementsByTagName(&quot;script&quot;),e=t.length;e--;)if(t[e].getAttribute(&quot;cf-hash&quot;))return t[e]}();if(t&amp;&amp;t.previousSibling){var e,r,n,i,c=t.previousSibling,a=c.getAttribute(&quot;data-cfemail&quot;);if(a){for(e=&quot;&quot;,r=parseInt(a.substr(0,2),16),n=2;a.length-n;n+=2)i=parseInt(a.substr(n,2),16)^r,e+=String.fromCharCode(i);e=document.createTextNode(e),c.parentNode.replaceChild(e,c)}}}catch(u){}}();/* ]]&gt; */&lt;/script&gt;\nFormat settings, CABAC         : Yes\nFormat settings, ReFrames      : 4 frames\nCodec ID                       : avc1\nCodec ID/Info                  : Advanced Video Coding\nDuration                       : 1h 54mn\nBit rate mode                  : Variable\nBit rate                       : 611 Kbps\nWidth                          : 640 pixels\nHeight                         : 360 pixels\nDisplay aspect ratio           : 16:9\nFrame rate mode                : Constant\nFrame rate                     : 24.000 fps\nColor space                    : YUV\nChroma subsampling             : 4:2:0\nBit depth                      : 8 bits\nScan type                      : Progressive\nBits/(Pixel*Frame)             : 0.111\nStream size                    : 501 MiB (82%)\nWriting library                : x264 core 120\nColor primaries                : BT.601 NTSC\nTransfer characteristics       : BT.709\nMatrix coefficients            : BT.601\n\nAudio\nID                             : 2\nFormat                         : AAC\nFormat/Info                    : Advanced Audio Codec\nFormat profile                 : LC\nCodec ID                       : 40\nDuration                       : 1h 54mn\nBit rate mode                  : Variable\nBit rate                       : 132 Kbps\nMaximum bit rate               : 187 Kbps\nChannel(s)                     : 2 channels\nChannel positions              : Front: L R\nSampling rate                  : 44.1 KHz\nCompression mode               : Lossy\nDelay relative to video        : 83ms\nStream size                    : 110 MiB (18%)\n\nRipper : SaketSaket\n\nSeeding 24x7... Extreme Seeding...\n\n\nEnjoy!","torrent":{"xt":"urn:btih:685b06ce038314d7f7742d357c8a91a7590f2350","amp;dn":"16%2B+Anchhuyee+2002+Hot+Movie+x264+VCDRip+%28RRG%29+-+Hindi","amp;tr":["udp%3A%2F%2Ftracker.openbittorrent.com%3A80","udp%3A%2F%2Fopen.demonii.com%3A1337","udp%3A%2F%2Ftracker.coppersurfer.tk%3A6969","udp%3A%2F%2Fexodus.desync.com%3A6969"],"infoHash":"685b06ce038314d7f7742d357c8a91a7590f2350","infoHashBuffer":{"type":"Buffer","data":[104,91,6,206,3,131,20,215,247,116,45,53,124,138,145,167,89,15,35,80]},"announce":[],"urlList":[]}}